<?xml version="1.0" standalone="no"?>
<!DOCTYPE svg PUBLIC "-//W3C//DTD SVG 20010904//EN"
 "http://www.w3.org/TR/2001/REC-SVG-20010904/DTD/svg10.dtd">
<svg version="1.0" xmlns="http://www.w3.org/2000/svg"
viewBox="0 0 800 800"
 preserveAspectRatio="xMidYMid meet">

<g transform="translate(0,800) scale(0.34,-0.34)"
fill="currentColor" stroke="none">
<path d="M865 2069 c-119 -28 -274 -141 -346 -251 -78 -121 -90 -275 -32 -399
88 -188 250 -250 843 -324 368 -46 530 -94 636 -187 109 -96 145 -283 85 -440
-29 -75 -103 -156 -182 -198 -60 -32 -63 -32 -163 -28 -166 9 -262 57 -374
188 -35 41 -87 101 -115 133 -103 121 -252 220 -392 263 -84 26 -286 26 -370
0 -131 -40 -231 -102 -322 -199 -70 -75 -107 -146 -124 -238 -10 -55 -9 -73 5
-123 64 -218 420 -312 756 -200 95 32 214 91 291 145 l60 43 -33 33 -34 34
-115 -55 c-199 -95 -255 -110 -394 -111 -111 0 -124 2 -171 27 -54 28 -109 84
-125 125 -5 13 -9 47 -9 74 0 211 341 344 587 229 90 -41 124 -72 219 -192
226 -286 395 -401 610 -415 108 -7 210 16 327 74 128 65 246 182 306 303 123
252 80 519 -114 715 -109 110 -243 170 -445 200 -52 8 -205 19 -340 25 -261
11 -420 25 -485 42 -60 15 -169 73 -204 109 -49 49 -65 87 -65 154 1 164 150
299 342 312 65 5 86 2 125 -15 44 -20 46 -22 37 -47 -31 -81 1 -157 80 -189
52 -20 197 -43 325 -51 92 -6 105 -5 160 18 32 14 60 29 62 33 3 12 -111 107
-211 176 -239 165 -516 248 -691 207z m650 -275 c32 -21 23 -34 -20 -34 -37 0
-55 20 -55 60 0 21 1 22 25 6 14 -9 36 -23 50 -32z"/>
<path d="M1633 775 c-101 -28 -241 -115 -322 -199 -29 -30 -32 -37 -21 -51 36
-43 47 -40 131 39 101 96 212 154 309 162 58 5 71 3 119 -23 37 -19 65 -44 87
-77 24 -34 36 -44 40 -33 14 36 -71 136 -144 169 -58 26 -135 31 -199 13z"/>
</g>
</svg>
