<?xml version="1.0" encoding="UTF-8" standalone="no"?>
<svg
   version="1.1"
   width="236"
   height="209"
   id="svg2"
   sodipodi:docname="white_notext_4x.svg"
   inkscape:version="1.4 (e7c3feb100, 2024-10-09)"
   xmlns:inkscape="http://www.inkscape.org/namespaces/inkscape"
   xmlns:sodipodi="http://sodipodi.sourceforge.net/DTD/sodipodi-0.dtd"
   xmlns="http://www.w3.org/2000/svg"
   xmlns:svg="http://www.w3.org/2000/svg">
  <defs
     id="defs2" />
  <sodipodi:namedview
     id="namedview2"
     pagecolor="#424242"
     bordercolor="#585858"
     borderopacity="0.24705882"
     inkscape:showpageshadow="2"
     inkscape:pageopacity="0.0"
     inkscape:pagecheckerboard="0"
     inkscape:deskcolor="#424242"
     showgrid="true"
     inkscape:zoom="5.4401914"
     inkscape:cx="117.91865"
     inkscape:cy="104.5"
     inkscape:window-width="2560"
     inkscape:window-height="1375"
     inkscape:window-x="0"
     inkscape:window-y="0"
     inkscape:window-maximized="1"
     inkscape:current-layer="svg2">
    <inkscape:grid
       id="grid2"
       units="px"
       originx="0"
       originy="0"
       spacingx="1"
       spacingy="1"
       empcolor="#0099e5"
       empopacity="0.30196078"
       color="#0099e5"
       opacity="0.14901961"
       empspacing="5"
       enabled="true"
       visible="true" />
    <inkscape:page
       x="0"
       y="0"
       width="236"
       height="209"
       id="page2"
       margin="0"
       bleed="0" />
  </sodipodi:namedview>
  <path
     d="m 166.80718,29.851562 c 1.30455,1.045277 2.60576,2.094749 3.90355,3.148438 1.01753,0.823228 1.01753,0.823228 2.05562,1.663086 0.6407,0.531416 1.28141,1.062832 1.94153,1.610351 0.57597,0.476148 1.15194,0.952295 1.74536,1.442872 C 177.69893,39 177.69893,39 177.69893,41 c -8.32171,4.138329 -14.72577,5.7776 -23.95951,5 -0.75282,-0.05607 -1.50565,-0.112148 -2.28131,-0.169922 C 123.82647,43.729295 123.82647,43.729295 114.80522,37 111.2219,31.789609 111.27427,27.15432 112.30944,21.0625 112.47417,20.381875 112.63889,19.70125 112.8086,19 105.67079,15.100075 98.613575,14.942206 90.720926,16.691406 81.108057,19.626812 73.37616,23.786524 68.1107,32.582031 64.615983,39.482944 63.099408,45.138218 65.115761,52.753906 67.863391,60.746616 73.71756,64.144733 80.862587,68 c 12.587257,6.033415 27.074813,6.233283 40.791443,6.890564 3.12791,0.15141 6.25482,0.320603 9.3819,0.488556 2.38267,0.127872 4.76543,0.254062 7.14824,0.379669 1.1499,0.06073 1.1499,0.06073 2.32303,0.122681 1.45891,0.07683 2.91782,0.153268 4.37676,0.229248 55.46407,2.901891 55.46407,2.901891 74.7675,23.471313 7.04172,8.628839 12.23254,17.540759 14.9513,28.417969 0.19046,0.76184 0.38092,1.52367 0.57715,2.30859 2.86525,18.31014 -1.23718,35.74579 -11.81597,50.92578 -11.76713,14.93275 -28.70701,25.25203 -47.66165,27.76563 -17.53063,1.51709 -32.71059,-3.32435 -46.42153,-14.1875 -9.41232,-8.03542 -17.3161,-16.67552 -24.83303,-26.44141 -9.444093,-12.2296 -19.260295,-21.4642 -35.026745,-23.90625 -13.205768,-1.2482 -26.434048,1.25021 -36.976569,9.84766 -5.01472,4.85575 -7.629939,9.66077 -8.048898,16.6875 0.300818,6.33757 2.8601,10.50738 7.452249,14.75781 8.288439,6.59734 17.417864,7.9444 27.82407,6.84375 13.919898,-2.14567 26.700401,-7.36018 38.934201,-14.23706 4.673822,-2.51727 4.673822,-2.51727 7.526352,-1.71606 2.0545,1.64829 3.88257,3.42475 5.6779,5.35156 -1.35736,3.22664 -2.6344,4.74733 -5.59603,6.58594 -0.72708,0.45302 -1.45416,0.90605 -2.20329,1.3728 -0.78243,0.46737 -1.56485,0.93473 -2.37099,1.41626 -0.80946,0.48606 -1.61892,0.97211 -2.452894,1.4729 C 77.943591,205.31995 52.399526,211.36563 28.076797,205.25 17.78922,202.23826 8.2674242,197.93472 2.5574256,188.3125 -1.2831415,180.15674 -1.2653038,170.75709 1.6215073,162.25 c 2.1538118,-5.2265 4.971248,-9.74579 8.3608698,-14.25 0.4156639,-0.59297 0.8313309,-1.18594 1.2595899,-1.79688 9.718918,-12.74657 26.771706,-19.72888 41.979833,-22.89062 20.38046,-1.73008 40.060208,2.74742 56.10977,15.93164 8.56351,7.34871 15.91182,15.57261 22.94412,24.38086 10.46599,12.83129 21.06905,17.96285 37.43674,20.375 0.8133,0.14051 1.62663,0.28102 2.46457,0.42578 8.25932,0.7872 16.81509,-4.40644 22.9924,-9.47266 8.29936,-8.62828 11.91241,-20.04641 11.75357,-31.85156 C 206.07855,133.50713 202.80601,124.60554 195.66856,118 177.05628,104.12951 151.24242,102.10459 128.92497,99.42041 65.648464,91.746292 65.648464,91.746292 51.225176,73.84375 44.737505,64.714714 42.596063,54.154971 44.389072,43.152344 47.607917,28.366423 55.803002,17.420217 68.013209,8.7929688 101.33903,-11.458011 139.40935,8.3632438 166.80718,29.851562 Z M 143.75629,25 c 0.27493,3.818134 0.27493,3.818134 1.99663,7 2.32903,0.04093 4.65918,0.04242 6.98819,0 0,-0.66 0,-1.32 0,-2 -2.96498,-1.65 -5.92997,-3.3 -8.98482,-5 z"
     fill="#ffffff"
     id="path1"
     style="stroke-width:0.999157" />
  <path
     d="m 190.75,135.75 c 3.02603,3.02603 5.45984,6.34974 7.25,10.25 0,1.32 0,2.64 0,4 -0.99,0 -1.98,0 -3,0 -1.39453,-1.60938 -1.39453,-1.60938 -2.8125,-3.75 -3.49297,-4.89709 -7.21022,-8.01839 -13.1875,-9.25 -13.57053,-1.29243 -24.73597,5.91067 -35,14 -3.50426,3.09375 -6.40583,6.10875 -9,10 -3.36592,-1.44254 -5.51047,-3.33265 -8,-6 2.85067,-8.55201 17.04856,-16.45166 24.92969,-20.50781 13.39541,-6.21803 26.14848,-6.80608 38.82031,1.25781 z"
     fill="#ffffff"
     id="path2" />
</svg>
